<mxfile host="app.diagrams.net" modified="2024-05-10T16:48:50.062Z" agent="Mozilla/5.0 (Windows NT 10.0; Win64; x64) AppleWebKit/537.36 (KHTML, like Gecko) Chrome/123.0.0.0 Safari/537.36 OPR/109.0.0.0" etag="o2AsfWDwOOs2UYpVjVqo" version="24.3.1" type="github">
  <diagram name="Страница — 1" id="ERV80vSOpAAkdhkbUZ9k">
    <mxGraphModel dx="1393" dy="766" grid="1" gridSize="10" guides="1" tooltips="1" connect="1" arrows="1" fold="1" page="1" pageScale="1" pageWidth="827" pageHeight="1169" math="0" shadow="0">
      <root>
        <mxCell id="0" />
        <mxCell id="1" parent="0" />
        <mxCell id="5n3Qdy582s-pNoiyQu8o-5" value="" style="edgeStyle=orthogonalEdgeStyle;rounded=0;orthogonalLoop=1;jettySize=auto;html=1;" parent="1" source="5n3Qdy582s-pNoiyQu8o-1" target="5n3Qdy582s-pNoiyQu8o-4" edge="1">
          <mxGeometry relative="1" as="geometry" />
        </mxCell>
        <mxCell id="5n3Qdy582s-pNoiyQu8o-1" value="&lt;font style=&quot;font-size: 20px;&quot;&gt;Начало&lt;/font&gt;" style="ellipse;whiteSpace=wrap;html=1;" parent="1" vertex="1">
          <mxGeometry x="315" y="40" width="225" height="120" as="geometry" />
        </mxCell>
        <mxCell id="5n3Qdy582s-pNoiyQu8o-8" value="" style="edgeStyle=orthogonalEdgeStyle;rounded=0;orthogonalLoop=1;jettySize=auto;html=1;" parent="1" source="5n3Qdy582s-pNoiyQu8o-4" target="5n3Qdy582s-pNoiyQu8o-7" edge="1">
          <mxGeometry relative="1" as="geometry" />
        </mxCell>
        <mxCell id="5n3Qdy582s-pNoiyQu8o-22" style="edgeStyle=orthogonalEdgeStyle;rounded=0;orthogonalLoop=1;jettySize=auto;html=1;exitX=1;exitY=0.5;exitDx=0;exitDy=0;entryX=0.5;entryY=0;entryDx=0;entryDy=0;" parent="1" source="5n3Qdy582s-pNoiyQu8o-4" target="5n3Qdy582s-pNoiyQu8o-21" edge="1">
          <mxGeometry relative="1" as="geometry">
            <Array as="points">
              <mxPoint x="760" y="240" />
              <mxPoint x="760" y="780" />
              <mxPoint x="428" y="780" />
            </Array>
          </mxGeometry>
        </mxCell>
        <mxCell id="5n3Qdy582s-pNoiyQu8o-4" value="&lt;font style=&quot;font-size: 14px;&quot;&gt;foreach(User user in usersList)&lt;/font&gt;&lt;div&gt;&lt;br&gt;&lt;/div&gt;" style="shape=hexagon;perimeter=hexagonPerimeter2;whiteSpace=wrap;html=1;fixedSize=1;" parent="1" vertex="1">
          <mxGeometry x="286.88" y="190" width="281.25" height="100" as="geometry" />
        </mxCell>
        <mxCell id="5n3Qdy582s-pNoiyQu8o-10" value="" style="edgeStyle=orthogonalEdgeStyle;rounded=0;orthogonalLoop=1;jettySize=auto;html=1;" parent="1" source="5n3Qdy582s-pNoiyQu8o-7" target="5n3Qdy582s-pNoiyQu8o-9" edge="1">
          <mxGeometry relative="1" as="geometry" />
        </mxCell>
        <mxCell id="5n3Qdy582s-pNoiyQu8o-7" value="&lt;font style=&quot;font-size: 14px;&quot;&gt;Console.WriteLine($&quot;Приветствуем, {user.Name}!&quot;);&lt;/font&gt;" style="shape=parallelogram;perimeter=parallelogramPerimeter;whiteSpace=wrap;html=1;fixedSize=1;" parent="1" vertex="1">
          <mxGeometry x="295.63" y="320" width="263.76" height="90" as="geometry" />
        </mxCell>
        <mxCell id="5n3Qdy582s-pNoiyQu8o-11" style="edgeStyle=orthogonalEdgeStyle;rounded=0;orthogonalLoop=1;jettySize=auto;html=1;exitX=0;exitY=0.5;exitDx=0;exitDy=0;entryX=0;entryY=0.5;entryDx=0;entryDy=0;" parent="1" source="5n3Qdy582s-pNoiyQu8o-9" target="5n3Qdy582s-pNoiyQu8o-4" edge="1">
          <mxGeometry relative="1" as="geometry">
            <Array as="points">
              <mxPoint x="190" y="512" />
              <mxPoint x="190" y="240" />
            </Array>
          </mxGeometry>
        </mxCell>
        <mxCell id="5n3Qdy582s-pNoiyQu8o-13" value="" style="edgeStyle=orthogonalEdgeStyle;rounded=0;orthogonalLoop=1;jettySize=auto;html=1;entryX=0.5;entryY=0;entryDx=0;entryDy=0;" parent="1" source="5n3Qdy582s-pNoiyQu8o-9" target="5n3Qdy582s-pNoiyQu8o-12" edge="1">
          <mxGeometry relative="1" as="geometry">
            <mxPoint x="650" y="550" as="targetPoint" />
            <Array as="points">
              <mxPoint x="620" y="512" />
              <mxPoint x="620" y="620" />
            </Array>
          </mxGeometry>
        </mxCell>
        <mxCell id="5n3Qdy582s-pNoiyQu8o-9" value="If(user.IsPremium)" style="rhombus;whiteSpace=wrap;html=1;" parent="1" vertex="1">
          <mxGeometry x="346.27" y="439.5" width="162.49" height="145" as="geometry" />
        </mxCell>
        <mxCell id="5n3Qdy582s-pNoiyQu8o-16" style="edgeStyle=orthogonalEdgeStyle;rounded=0;orthogonalLoop=1;jettySize=auto;html=1;exitX=0.5;exitY=1;exitDx=0;exitDy=0;entryX=0;entryY=0.5;entryDx=0;entryDy=0;" parent="1" source="5n3Qdy582s-pNoiyQu8o-12" target="5n3Qdy582s-pNoiyQu8o-4" edge="1">
          <mxGeometry relative="1" as="geometry">
            <Array as="points">
              <mxPoint x="619" y="710" />
              <mxPoint x="100" y="710" />
              <mxPoint x="100" y="240" />
            </Array>
          </mxGeometry>
        </mxCell>
        <mxCell id="5n3Qdy582s-pNoiyQu8o-12" value="ShowAds();" style="whiteSpace=wrap;html=1;" parent="1" vertex="1">
          <mxGeometry x="559.395" y="630" width="120" height="60" as="geometry" />
        </mxCell>
        <mxCell id="5n3Qdy582s-pNoiyQu8o-21" value="&lt;span style=&quot;font-size: 20px;&quot;&gt;Конец&lt;/span&gt;" style="ellipse;whiteSpace=wrap;html=1;" parent="1" vertex="1">
          <mxGeometry x="315.01" y="860" width="225" height="120" as="geometry" />
        </mxCell>
      </root>
    </mxGraphModel>
  </diagram>
</mxfile>
